<svg xmlns="http://www.w3.org/2000/svg" viewBox="0 0 800 500"><defs><linearGradient id="b" x2="1" y2="1"><stop stop-color="#f3e6df"/><stop offset="1" stop-color="#d6a8ac"/></linearGradient></defs><rect width="800" height="500" rx="30" fill="url(#b)"/><rect x="70" y="60" width="660" height="380" rx="22" fill="#fff"/><rect x="70" y="60" width="150" height="380" rx="22" fill="#3b293d"/><circle cx="145" cy="115" r="25" fill="#c98691"/><rect x="112" y="170" width="80" height="8" rx="4" fill="#765f73"/><rect x="112" y="205" width="60" height="8" rx="4" fill="#765f73"/><rect x="112" y="240" width="72" height="8" rx="4" fill="#765f73"/><path d="M285 340V260M350 340V210M415 340V285M480 340V175M545 340V235M610 340V145" stroke="#c98691" stroke-width="38"/><path d="M275 150c70 50 120-15 185 10s95-40 165-45" fill="none" stroke="#704257" stroke-width="10" stroke-linecap="round"/><circle cx="625" cy="115" r="12" fill="#704257"/></svg>
